<?xml version="1.0" standalone="no"?>
<!DOCTYPE svg PUBLIC "-//W3C//DTD SVG 1.1//EN"
  "http://www.w3.org/Graphics/SVG/1.1/DTD/svg11.dtd">
<svg width="90.16426849365234mm" height="70.14114379882812mm" viewBox="20.414688110351562 28.42633056640625 90.16426849365234 70.14114379882812" xmlns="http://www.w3.org/2000/svg" version="1.1">
	<title>svgOutput</title>
	<desc>made with tinkercad</desc>
<path d="M 29.49799919128418 97.56747436523438 L 29.49799919128418 97 L 29.49799919128418 96.44355773925781 L 29.49799919128418 95.6460952758789 L 29.49799919128418 95.0780029296875 L 29.49799919128418 94.81509399414062 L 29.496000289916992 94.81902313232422 L 29.496000289916992 95.08000183105469 L 29.496000289916992 95.6471176147461 L 29.496000289916992 96.4438705444336 L 29.496000289916992 97 L 29.496000289916992 97.56747436523438 L 29.45800018310547 97.56747436523438 L 29.457000732421875 97.56747436523438 L 28.672000885009766 97.56747436523438 L 27.4950008392334 97.56747436523438 L 27.493999481201172 97.56747436523438 L 24.576000213623047 97.56747436523438 L 24.03346061706543 97.56747436523438 L 24 97.56747436523438 L 23.552000045776367 97.5118408203125 L 23.318571090698242 97.48285675048828 L 23.200101852416992 97.46115112304688 L 23.143142700195312 97.44085693359375 L 22.834230422973633 97.28794860839844 L 22.819162368774414 97.27999877929688 L 22.529428482055664 97.12714385986328 L 22.527999877929688 97.12606811523438 L 22.481101989746094 97.09085845947266 L 22.45800018310547 97.07443237304688 L 22.457653045654297 97.07418823242188 L 22.457000732421875 97.073486328125 L 22.307180404663086 96.91230773925781 L 22.20144271850586 96.79855346679688 L 21.989696502685547 96.53135681152344 L 21.98900032043457 96.530517578125 L 21.76021957397461 96.25599670410156 L 21.692907333374023 96.17523193359375 L 21.691953659057617 96.15825653076172 L 21.5939998626709 95.92317199707031 L 21.542184829711914 95.79881286621094 L 21.5218563079834 95.74185943603516 L 21.503999710083008 95.62554168701172 L 21.49095916748047 95.54060363769531 L 21.447542190551758 95.23200225830078 L 21.429885864257812 95.10649108886719 L 21.423786163330078 95 L 21.42342185974121 94.20800018310547 L 21.421953201293945 91.00299835205078 L 21.420473098754883 91.00299835205078 L 21.42005157470703 90.11199951171875 L 21.416175842285156 81.91999816894531 L 21.414688110351562 78.7764892578125 L 21.417604446411133 73.72799682617188 L 21.42233657836914 65.53600311279297 L 21.42706871032715 57.34400177001953 L 21.431798934936523 49.152000427246094 L 21.43653106689453 40.959999084472656 L 21.43889808654785 36.86399841308594 L 21.43939208984375 36.007999420166016 L 21.44112777709961 36.007999420166016 L 21.4429988861084 32.768001556396484 L 21.443435668945312 32.01100158691406 L 21.461393356323242 31.836095809936523 L 21.472843170166016 31.743999481201172 L 21.510900497436523 31.437894821166992 L 21.53597640991211 31.34177589416504 L 21.557037353515625 31.26104736328125 L 21.5939998626709 31.18308448791504 L 21.778295516967773 30.79436683654785 L 21.812000274658203 30.72504425048828 L 21.814451217651367 30.719999313354492 L 21.864486694335938 30.617088317871094 L 21.98900032043457 30.474651336669922 L 22.056020736694336 30.39798355102539 L 22.369075775146484 30.06781768798828 L 22.441936492919922 30 L 22.457000732421875 29.985979080200195 L 22.527999877929688 29.91989517211914 L 22.671981811523438 29.78588104248047 L 22.675296783447266 29.782794952392578 L 22.685150146484375 29.773624420166016 L 22.701221466064453 29.761777877807617 L 22.708114624023438 29.773914337158203 L 22.70918846130371 29.775806427001953 L 22.725536346435547 29.804594039916992 L 22.8959903717041 29.72523307800293 L 22.90704345703125 29.7200870513916 L 22.91807746887207 29.714948654174805 L 22.935720443725586 29.712326049804688 L 22.953325271606445 29.70970916748047 L 23.038827896118164 29.69700050354004 L 23.064443588256836 29.693191528320312 L 23.552000045776367 29.551897048950195 L 23.776187896728516 29.486927032470703 L 23.935489654541016 29.443796157836914 L 24 29.42633056640625 L 24.576000213623047 29.426559448242188 L 27.493999481201172 29.42772102355957 L 28.672000885009766 29.42818832397461 L 29.457000732421875 29.42850112915039 L 29.4950008392334 29.428516387939453 L 29.4950008392334 29.43646812438965 L 29.4950008392334 29.443796157836914 L 29.4950008392334 30 L 29.4950008392334 30.884775161743164 L 29.4950008392334 32.17901611328125 L 29.49799919128418 32.184906005859375 L 29.49799919128418 30.90369415283203 L 29.49799919128418 30 L 29.49799919128418 29.443796157836914 L 29.49799919128418 29.436479568481445 L 29.98900032043457 29.438169479370117 L 30.993000030517578 29.44162940979004 L 30.993000030517578 29.443796157836914 L 30.993000030517578 32.768001556396484 L 30.993000030517578 36.86399841308594 L 30.993000030517578 38 L 30.993000030517578 40.959999084472656 L 30.993000030517578 45.055999755859375 L 30.993000030517578 49.152000427246094 L 30.993000030517578 53.24800109863281 L 30.993000030517578 57.34400177001953 L 30.993000030517578 61.439998626708984 L 30.993000030517578 65.53600311279297 L 30.993000030517578 69.63200378417969 L 30.993000030517578 73.72799682617188 L 30.993000030517578 77.8239974975586 L 30.993000030517578 81.91999816894531 L 30.993000030517578 86.01599884033203 L 30.993000030517578 90.11199951171875 L 30.993000030517578 91.00299835205078 L 30.993999481201172 91.00299835205078 L 30.993999481201172 94.20800018310547 L 30.993999481201172 97.56732940673828 L 30.973236083984375 97.56747436523438 L 29.49799919128418 97.56747436523438 M 94.99600219726562 40.50299835205078 L 94.99600219726562 38 L 94.99600219726562 36.86399841308594 L 94.99600219726562 32.768001556396484 L 94.99600219726562 29.443796157836914 L 96.19100189208984 29.443796157836914 L 98.30400085449219 29.443796157836914 L 98.68599700927734 29.443796157836914 L 101.2020034790039 29.443796157836914 L 102.4000015258789 29.443796157836914 L 103.49500274658203 29.443796157836914 L 103.58899688720703 29.443796157836914 L 103.61100006103516 29.443796157836914 L 105.28600311279297 29.443796157836914 L 106.49099731445312 29.443796157836914 L 106.49600219726562 29.443796157836914 L 106.98899841308594 29.443796157836914 L 107.24473571777344 29.465808868408203 L 107.43675994873047 29.470853805541992 L 107.5199966430664 29.489032745361328 L 107.8373794555664 29.558353424072266 L 107.86428833007812 29.568479537963867 L 107.87677764892578 29.571311950683594 L 107.88419342041016 29.57596778869629 L 108.07684326171875 29.69700050354004 L 108.2020034790039 29.775625228881836 L 108.27752685546875 29.823076248168945 L 108.35919952392578 29.87438201904297 L 108.4157485961914 29.900714874267578 L 108.54399871826172 29.96431541442871 L 108.5496597290039 29.967121124267578 L 108.9214096069336 30.283588409423828 L 108.96379089355469 30.328086853027344 L 108.97636413574219 30.34347915649414 L 108.9935531616211 30.36377716064453 L 108.99513244628906 30.36646842956543 L 109.02592468261719 30.418886184692383 L 109.20278930664062 30.719999313354492 L 109.2940902709961 30.875442504882812 L 109.33074951171875 31.01352882385254 L 109.46400451660156 31.355655670166016 L 109.54389953613281 31.560779571533203 L 109.55097961425781 31.609540939331055 L 109.55197143554688 31.70421028137207 L 109.5523910522461 31.743999481201172 L 109.55520629882812 32.01100158691406 L 109.55520629882812 32.01353454589844 L 109.5555191040039 32.768001556396484 L 109.5566177368164 35.402000427246094 L 109.556640625 35.46099853515625 L 109.55686950683594 36.007999420166016 L 109.55812072753906 36.007999420166016 L 109.55847930908203 36.86399841308594 L 109.55895233154297 38 L 109.55895233154297 38.0099983215332 L 109.55999755859375 40.50299835205078 L 108.2020034790039 40.50299835205078 L 106.49600219726562 40.50299835205078 L 106.49099731445312 40.50299835205078 L 103.58899688720703 40.50299835205078 L 103.49500274658203 40.50299835205078 L 101.2020034790039 40.50299835205078 L 98.30400085449219 40.50299835205078 L 94.99600219726562 40.50299835205078 M 94.99600219726562 91.00299835205078 L 94.99600219726562 90.11199951171875 L 94.99600219726562 86.01599884033203 L 94.99600219726562 81.91999816894531 L 94.99600219726562 65.53600311279297 L 94.99600219726562 61.439998626708984 L 94.99600219726562 57.34400177001953 L 94.99600219726562 53.57099914550781 L 94.99600219726562 53.24800109863281 L 94.99600219726562 50.507999420166016 L 98.30400085449219 50.507999420166016 L 101.2020034790039 50.507999420166016 L 103.49500274658203 50.507999420166016 L 103.58899688720703 50.507999420166016 L 106.49099731445312 50.507999420166016 L 108.2020034790039 50.507999420166016 L 109.56416320800781 50.507999420166016 L 109.56543731689453 53.57099914550781 L 109.57042694091797 65.53600311279297 L 109.57383728027344 73.72799682617188 L 109.57725524902344 81.91999816894531 L 109.57874298095703 85.50199890136719 L 109.5789566040039 86.00599670410156 L 109.57794189453125 90.11199951171875 L 109.57772827148438 91.00299835205078 L 109.57704162597656 91.00299835205078 L 109.57621002197266 94.20800018310547 L 109.57599639892578 95 L 109.57023620605469 95.14688110351562 L 109.55766296386719 95.23200225830078 L 109.54717254638672 95.30299377441406 L 109.5105972290039 95.55057525634766 L 109.3923568725586 95.87474822998047 L 109.36699676513672 95.94258117675781 L 109.25040435791016 96.25455474853516 L 109.24960327148438 96.25599670410156 L 109.22891235351562 96.29344177246094 L 109.11529541015625 96.4556884765625 L 108.98492431640625 96.64186096191406 L 108.9712142944336 96.66325378417969 L 108.96575927734375 96.66923522949219 L 108.94124603271484 96.69609832763672 L 108.92229461669922 96.70433044433594 L 108.54399871826172 97.02178955078125 L 108.355224609375 97.18020629882812 L 108.28296661376953 97.2408447265625 L 108.26313018798828 97.2472915649414 L 108.20455169677734 97.27999877929688 L 108.2030029296875 97.28086853027344 L 108.2020034790039 97.28142547607422 L 108.15276336669922 97.30892181396484 L 107.8235092163086 97.44503021240234 L 107.5199966430664 97.48971557617188 L 107.29002380371094 97.52357482910156 L 106.98899841308594 97.53804779052734 L 106.49600219726562 97.5384521484375 L 106.49099731445312 97.53845977783203 L 105.28700256347656 97.5394515991211 L 104.98699951171875 97.5396957397461 L 103.61100006103516 97.54083251953125 L 103.58899688720703 97.54084777832031 L 103.49500274658203 97.54092407226562 L 102.4000015258789 97.54183197021484 L 101.2030029296875 97.54281616210938 L 101.2020034790039 97.54281616210938 L 100.49199676513672 97.54340362548828 L 100.49199676513672 97.54134368896484 L 98.70800018310547 97.54281616210938 L 98.70700073242188 97.54281616210938 L 98.68699645996094 97.54283142089844 L 98.30400085449219 97.54315185546875 L 96.19200134277344 97.54489135742188 L 94.99700164794922 97.5458755493164 L 94.99700164794922 94.20800018310547 L 94.99700164794922 91.00299835205078 L 94.99600219726562 91.00299835205078 M 91.49400329589844 97.56277465820312 L 91.49400329589844 97.54588317871094 L 90.11199951171875 97.5470199584961 L 83.48899841308594 97.55248260498047 L 83.48799896240234 97.55248260498047 L 81.91999816894531 97.55377197265625 L 80.99400329589844 97.55453491210938 L 80.99299621582031 97.55453491210938 L 65.53600311279297 97.5672836303711 L 65.2975082397461 97.56747436523438 L 49.152000427246094 97.56747436523438 L 38.74399948120117 97.56747436523438 L 32.768001556396484 97.56747436523438 L 31.95199966430664 97.56747436523438 L 30.996999740600586 97.56747436523438 L 30.996999740600586 97.56730651855469 L 30.996999740600586 94.20800018310547 L 30.996999740600586 91.00299835205078 L 30.996000289916992 91.00299835205078 L 30.996000289916992 90.11199951171875 L 30.996000289916992 86.01599884033203 L 30.996000289916992 81.91999816894531 L 30.996000289916992 77.8239974975586 L 30.996000289916992 73.72799682617188 L 30.996000289916992 69.63200378417969 L 30.996000289916992 65.53600311279297 L 30.996000289916992 61.439998626708984 L 30.996000289916992 57.34400177001953 L 30.996000289916992 53.24800109863281 L 30.996000289916992 49.152000427246094 L 30.996000289916992 45.055999755859375 L 30.996000289916992 40.959999084472656 L 30.996000289916992 38 L 30.996000289916992 36.86399841308594 L 30.996000289916992 32.768001556396484 L 30.996000289916992 29.443796157836914 L 30.996000289916992 29.441638946533203 L 30.996000289916992 29.429113388061523 L 30.996000289916992 29.427921295166016 L 31.95199966430664 29.428300857543945 L 32.768001556396484 29.428625106811523 L 38.74399948120117 29.431001663208008 L 49.152000427246094 29.43514060974121 L 65.53600311279297 29.4416561126709 L 70.92113494873047 29.443796157836914 L 80.99299621582031 29.443796157836914 L 81.91999816894531 29.443796157836914 L 83.48799896240234 29.443796157836914 L 90.11199951171875 29.443796157836914 L 91.40418243408203 29.443796157836914 L 91.49299621582031 29.443796157836914 L 91.49299621582031 32.768001556396484 L 91.49299621582031 36.86399841308594 L 91.49299621582031 38 L 91.49299621582031 40.959999084472656 L 91.49299621582031 49.152000427246094 L 91.49299621582031 53.57099914550781 L 91.49299621582031 57.34400177001953 L 91.49299621582031 61.439998626708984 L 91.49299621582031 65.53600311279297 L 91.49299621582031 81.91999816894531 L 91.49299621582031 86.01599884033203 L 91.49299621582031 90.11199951171875 L 91.49299621582031 91.00299835205078 L 91.49400329589844 91.00299835205078 L 91.49400329589844 90.11199951171875 L 91.49400329589844 86.01599884033203 L 91.49400329589844 81.91999816894531 L 91.49400329589844 65.53600311279297 L 91.49400329589844 61.439998626708984 L 91.49400329589844 57.34400177001953 L 91.49400329589844 53.57099914550781 L 91.49400329589844 49.152000427246094 L 91.49400329589844 40.959999084472656 L 91.49400329589844 38 L 91.49400329589844 36.86399841308594 L 91.49400329589844 32.768001556396484 L 91.49400329589844 29.443796157836914 L 94.20800018310547 29.443796157836914 L 94.99299621582031 29.443796157836914 L 94.99299621582031 32.768001556396484 L 94.99299621582031 36.86399841308594 L 94.99299621582031 38 L 94.99299621582031 40.959999084472656 L 94.99299621582031 49.152000427246094 L 94.99299621582031 53.24800109863281 L 94.99299621582031 53.57099914550781 L 94.99299621582031 57.34400177001953 L 94.99299621582031 61.439998626708984 L 94.99299621582031 65.53600311279297 L 94.99299621582031 81.91999816894531 L 94.99299621582031 86.01599884033203 L 94.99299621582031 90.11199951171875 L 94.99299621582031 94.20800018310547 L 94.99299621582031 97.54588317871094 L 94.99299621582031 97.56031036376953 L 94.20800018310547 97.56085968017578 L 91.49400329589844 97.56277465820312 M 109.56937408447266 50.505001068115234 L 109.56416320800781 50.505001068115234 L 108.2020034790039 50.505001068115234 L 106.49099731445312 50.505001068115234 L 103.58899688720703 50.505001068115234 L 103.49500274658203 50.505001068115234 L 101.2020034790039 50.505001068115234 L 98.30400085449219 50.505001068115234 L 94.99600219726562 50.505001068115234 L 94.99600219726562 49.152000427246094 L 94.99600219726562 40.959999084472656 L 94.99600219726562 40.5099983215332 L 98.30400085449219 40.5099983215332 L 101.2020034790039 40.5099983215332 L 103.49500274658203 40.5099983215332 L 103.58899688720703 40.5099983215332 L 106.49099731445312 40.5099983215332 L 106.49600219726562 40.5099983215332 L 108.2020034790039 40.5099983215332 L 109.55999755859375 40.5099983215332 L 109.5652084350586 40.5099983215332 L 109.56539154052734 40.959999084472656 L 109.56880950927734 49.152000427246094 L 109.56937408447266 50.505001068115234 M 29.496000289916992 91.00299835205078 L 29.496000289916992 91.18097686767578 L 29.49799919128418 91.18490600585938 L 29.49799919128418 91.00299835205078 L 29.49799919128418 90.11199951171875 L 29.49799919128418 86.01599884033203 L 29.49799919128418 81.91999816894531 L 29.49799919128418 77.8239974975586 L 29.49799919128418 73.72799682617188 L 29.49799919128418 69.63200378417969 L 29.49799919128418 65.53600311279297 L 29.49799919128418 61.439998626708984 L 29.49799919128418 57.34400177001953 L 29.49799919128418 53.24800109863281 L 29.49799919128418 49.152000427246094 L 29.49799919128418 45.055999755859375 L 29.49799919128418 40.959999084472656 L 29.49799919128418 38 L 29.49799919128418 37.44355773925781 L 29.49799919128418 36.86399841308594 L 29.49799919128418 36.646095275878906 L 29.49799919128418 36.077999114990234 L 29.49799919128418 35.815093994140625 L 29.4950008392334 35.82098388671875 L 29.4950008392334 36.08100128173828 L 29.4950008392334 36.64762496948242 L 29.4950008392334 36.86399841308594 L 29.4950008392334 37.44403076171875 L 29.4950008392334 38 L 29.4950008392334 40.959999084472656 L 29.4950008392334 45.055999755859375 L 29.4950008392334 49.152000427246094 L 29.4950008392334 53.24800109863281 L 29.4950008392334 57.34400177001953 L 29.4950008392334 61.439998626708984 L 29.4950008392334 65.53600311279297 L 29.4950008392334 69.63200378417969 L 29.4950008392334 73.72799682617188 L 29.4950008392334 77.8239974975586 L 29.4950008392334 81.91999816894531 L 29.4950008392334 86.01599884033203 L 29.4950008392334 90.11199951171875 L 29.4950008392334 91.00299835205078 L 29.496000289916992 91.00299835205078 M 22.361000061035156 92.94300079345703 L 21.98900032043457 93.66608428955078 L 21.95199966430664 93.73799896240234 L 21.877397537231445 94.20800018310547 L 21.812000274658203 94.62000274658203 L 21.90925407409668 95.23200225830078 L 21.95199966430664 95.5009994506836 L 21.98900032043457 95.57301330566406 L 22.339933395385742 96.25599670410156 L 22.361000061035156 96.2969970703125 L 22.457000732421875 96.39209747314453 L 22.45800018310547 96.3930892944336 L 22.527999877929688 96.4624252319336 L 22.99799919128418 96.9280014038086 L 23.552000045776367 97.207763671875 L 23.799999237060547 97.33300018310547 L 24.576000213623047 97.45433044433594 L 24.68899917602539 97.47200012207031 L 25.577999114990234 97.33300018310547 L 26.3799991607666 96.9280014038086 L 27.017000198364258 96.2969970703125 L 27.168577194213867 96.00199890136719 L 27.426000595092773 95.5009994506836 L 27.493999481201172 95.07611846923828 L 27.4950008392334 95.06986999511719 L 27.566999435424805 94.62000274658203 L 27.501136779785156 94.20800018310547 L 27.4950008392334 94.16961669921875 L 27.493999481201172 94.16336059570312 L 27.426000595092773 93.73799896240234 L 27.017000198364258 92.94300079345703 L 26.3799991607666 92.31199645996094 L 25.89699935913086 92.0680923461914 L 25.577999114990234 91.90699768066406 L 24.68899917602539 91.76699829101562 L 24.576000213623047 91.78479766845703 L 23.799999237060547 91.90699768066406 L 23.29199981689453 92.16353607177734 L 22.99799919128418 92.31199645996094 L 22.45800018310547 92.84691619873047 L 22.457000732421875 92.84790802001953 L 22.361000061035156 92.94300079345703 M 105.5999984741211 97.33300018310547 L 106.48899841308594 97.47200012207031 L 106.49099731445312 97.47168731689453 L 106.49600219726562 97.47090911865234 L 107.37799835205078 97.33300018310547 L 107.5199966430664 97.26129150390625 L 108.18000030517578 96.9280014038086 L 108.2020034790039 96.90620422363281 L 108.2030029296875 96.90522003173828 L 108.54399871826172 96.56742858886719 L 108.81700134277344 96.2969970703125 L 108.83806610107422 96.25599670410156 L 109.22599792480469 95.5009994506836 L 109.26905059814453 95.23200225830078 L 109.36699676513672 94.62000274658203 L 109.30113983154297 94.20800018310547 L 109.22599792480469 93.73799896240234 L 108.81700134277344 92.94300079345703 L 108.2030029296875 92.33478546142578 L 108.2020034790039 92.33379364013672 L 108.19200134277344 92.32389068603516 L 108.18000030517578 92.31199645996094 L 107.99199676513672 92.2170639038086 L 107.89199829101562 92.16656494140625 L 107.37799835205078 91.90699768066406 L 106.49600219726562 91.76810455322266 L 106.49099731445312 91.76731872558594 L 106.48899841308594 91.76699829101562 L 105.5999984741211 91.90699768066406 L 105.28700256347656 92.0650634765625 L 104.98699951171875 92.21656036376953 L 104.7979965209961 92.31199645996094 L 104.16100311279297 92.94300079345703 L 103.75199890136719 93.73799896240234 L 103.67686462402344 94.20800018310547 L 103.61100006103516 94.62000274658203 L 103.75199890136719 95.5009994506836 L 104.16100311279297 96.2969970703125 L 104.7979965209961 96.9280014038086 L 104.98699951171875 97.02344512939453 L 105.28700256347656 97.17494201660156 L 105.5999984741211 97.33300018310547 M 108.18000030517578 34.858001708984375 L 108.2020034790039 34.83620834350586 L 108.81700134277344 34.22700119018555 L 109.22599792480469 33.430999755859375 L 109.33210754394531 32.768001556396484 L 109.36699676513672 32.54999923706055 L 109.23800659179688 31.743999481201172 L 109.22599792480469 31.66900062561035 L 109.16325378417969 31.546884536743164 L 108.81700134277344 30.87299919128418 L 108.66254425048828 30.719999313354492 L 108.54399871826172 30.602571487426758 L 108.2020034790039 30.263792037963867 L 108.18000030517578 30.242000579833984 L 107.5199966430664 29.908708572387695 L 107.37799835205078 29.836999893188477 L 106.49600219726562 29.698102951049805 L 106.49099731445312 29.697315216064453 L 106.48899841308594 29.69700050354004 L 105.5999984741211 29.836999893188477 L 105.28600311279297 29.99556541442871 L 104.7979965209961 30.242000579833984 L 104.16100311279297 30.87299919128418 L 103.75199890136719 31.66900062561035 L 103.61100006103516 32.54999923706055 L 103.64588928222656 32.768001556396484 L 103.75199890136719 33.430999755859375 L 104.16100311279297 34.22700119018555 L 104.7979965209961 34.858001708984375 L 105.28600311279297 35.104434967041016 L 105.5999984741211 35.26300048828125 L 106.48899841308594 35.402000427246094 L 106.49099731445312 35.40168762207031 L 106.49600219726562 35.40090560913086 L 107.37799835205078 35.26300048828125 L 108.18000030517578 34.858001708984375 M 21.9399356842041 31.743999481201172 L 21.812000274658203 32.54999923706055 L 21.846641540527344 32.768001556396484 L 21.95199966430664 33.430999755859375 L 21.98900032043457 33.50300979614258 L 22.049224853515625 33.62022018432617 L 22.361000061035156 34.22700119018555 L 22.99799919128418 34.858001708984375 L 23.799999237060547 35.26300048828125 L 24.576000213623047 35.38433074951172 L 24.68899917602539 35.402000427246094 L 25.577999114990234 35.26300048828125 L 26.3799991607666 34.858001708984375 L 27.017000198364258 34.22700119018555 L 27.426000595092773 33.430999755859375 L 27.5321102142334 32.768001556396484 L 27.566999435424805 32.54999923706055 L 27.426000595092773 31.667999267578125 L 27.017000198364258 30.87299919128418 L 26.3799991607666 30.242000579833984 L 25.921863555908203 30.01064682006836 L 25.900779724121094 30 L 25.577999114990234 29.836999893188477 L 24.68899917602539 29.69700050354004 L 24.576000213623047 29.71479606628418 L 23.799999237060547 29.836999893188477 L 23.552000045776367 29.962236404418945 L 23.47722053527832 30 L 22.99799919128418 30.242000579833984 L 22.718793869018555 30.51857566833496 L 22.527999877929688 30.70757293701172 L 22.51545524597168 30.719999313354492 L 22.457000732421875 30.777904510498047 L 22.361000061035156 30.87299919128418 L 21.98900032043457 31.596080780029297 L 21.95199966430664 31.667999267578125 L 21.9399356842041 31.743999481201172 z" fill="none" stroke="rgb(0,0,255)" stroke-width="0.01mm" />
</svg>