<?xml version="1.0" standalone="no"?>
<!DOCTYPE svg PUBLIC "-//W3C//DTD SVG 1.1//EN"
  "http://www.w3.org/Graphics/SVG/1.1/DTD/svg11.dtd">
<svg width="90.98899745941162mm" height="70.99000072479248mm" viewBox="-16.99899959564209 -82.79000091552734 90.98899745941162 70.99000072479248" xmlns="http://www.w3.org/2000/svg" version="1.1">
	<title>svgOutput</title>
	<desc>made with tinkercad</desc>
<path d="M -9.552000045776367 -17.177000045776367 L -9.426249504089355 -16.384000778198242 L -9.404999732971191 -16.25 L -9.552000045776367 -15.322999954223633 L -9.639344215393066 -15.151592254638672 L -9.818504333496094 -14.800000190734863 L -9.819523811340332 -14.79800033569336 L -9.635251998901367 -14.79800033569336 L -9.404999732971191 -14.79800033569336 L -9.33899974822998 -14.79800033569336 L -9.30892562866211 -14.79800033569336 L -8.192000389099121 -14.79800033569336 L -7.504000186920166 -14.79800033569336 L -7.504000186920166 -12.800000190734863 L -8.192000389099121 -12.800000190734863 L -8.934000015258789 -12.800000190734863 L -8.93552017211914 -12.800000190734863 L -8.99653434753418 -12.800000190734863 L -9.001072883605957 -12.800000190734863 L -9.058279991149902 -12.800000190734863 L -9.114827156066895 -12.800000190734863 L -9.20892333984375 -12.800000190734863 L -9.33899974822998 -12.800000190734863 L -12.99899959564209 -12.800000190734863 L -13.028055191040039 -12.802565574645996 L -13.758891105651855 -12.909263610839844 L -13.81348705291748 -12.929117202758789 L -13.99899959564209 -13.00296401977539 L -14.49899959564209 -13.20199966430664 L -14.928000450134277 -13.501999855041504 L -15.597999572753906 -14.300000190734863 L -15.61032485961914 -14.326434135437012 L -15.617853164672852 -14.354596138000488 L -15.779818534851074 -14.800000190734863 L -15.954000473022461 -15.279000282287598 L -15.99899959564209 -15.800000190734863 L -15.99899959564209 -16.384000778198242 L -15.99899959564209 -20.479999542236328 L -15.99899959564209 -24.576000213623047 L -15.99899959564209 -32.768001556396484 L -15.99899959564209 -49.152000427246094 L -15.99899959564209 -65.53600311279297 L -15.99899959564209 -73.72799682617188 L -15.99899959564209 -77.8239974975586 L -15.99899959564209 -78.79000091552734 L -15.956000328063965 -79.28500366210938 L -15.95025634765625 -79.30908966064453 L -15.738747596740723 -79.9766616821289 L -15.732613563537598 -79.99150085449219 L -15.719563484191895 -80.015869140625 L -15.303156852722168 -80.69666290283203 L -15.265960693359375 -80.73731231689453 L -14.97419261932373 -81.03663635253906 L -14.451087951660156 -81.40677642822266 L -14.428000450134277 -81.4219970703125 L -13.99899959564209 -81.61235046386719 L -13.977259635925293 -81.62199401855469 L -13.975000381469727 -81.62300109863281 L -13.497218132019043 -81.7457504272461 L -13.470394134521484 -81.7526626586914 L -13.442789077758789 -81.75506591796875 L -12.99899959564209 -81.79000091552734 L -12.288000106811523 -81.79000091552734 L -9.33899974822998 -81.79000091552734 L -8.192000389099121 -81.79000091552734 L -7.504000186920166 -81.79000091552734 L -7.504000186920166 -79.79299926757812 L -8.192000389099121 -79.79299926757812 L -9.33899974822998 -79.79299926757812 L -9.404999732971191 -79.79299926757812 L -9.516304969787598 -79.79299926757812 L -9.743369102478027 -79.79299926757812 L -9.741842269897461 -79.79000091552734 L -9.552000045776367 -79.41699981689453 L -9.404999732971191 -78.48999786376953 L -9.510611534118652 -77.8239974975586 L -9.552000045776367 -77.56300354003906 L -9.743088722229004 -77.18800354003906 L -9.977999687194824 -76.72699737548828 L -10.642000198364258 -76.06300354003906 L -11.477999687194824 -75.63700103759766 L -12.288000106811523 -75.50855255126953 L -12.404999732971191 -75.48999786376953 L -13.333000183105469 -75.63700103759766 L -13.708000183105469 -75.82808685302734 L -13.99899959564209 -75.97637176513672 L -14.001999855041504 -75.9779052734375 L -14.001999855041504 -75.74297332763672 L -14.001999855041504 -75.48999786376953 L -14.001999855041504 -73.72799682617188 L -14.001999855041504 -70.58799743652344 L -13.99899959564209 -70.58799743652344 L -13.99899959564209 -65.53600311279297 L -13.99899959564209 -49.152000427246094 L -13.99899959564209 -32.768001556396484 L -13.99899959564209 -24.576000213623047 L -13.99899959564209 -24.003000259399414 L -14.001999855041504 -24.003000259399414 L -14.001999855041504 -20.479999542236328 L -14.001999855041504 -19.25 L -14.001999855041504 -18.843748092651367 L -14.001999855041504 -18.76209831237793 L -13.99899959564209 -18.763626098632812 L -13.708000183105469 -18.911911010742188 L -13.333000183105469 -19.10300064086914 L -12.404999732971191 -19.25 L -12.288000106811523 -19.231447219848633 L -11.477999687194824 -19.10300064086914 L -11.102999687194824 -18.911911010742188 L -10.642000198364258 -18.677000045776367 L -9.977999687194824 -18.013999938964844 L -9.552000045776367 -17.177000045776367 M -6.002999782562256 -12.800000190734863 L -6.002999782562256 -14.79800033569336 L -4.697000026702881 -14.79800033569336 L -4.697000026702881 -14.800000190734863 L -3.003999948501587 -14.800000190734863 L -3 -14.800000190734863 L -0.5049999952316284 -14.800000190734863 L 0 -14.800000190734863 L 1.4470000267028809 -14.800000190734863 L 3.941999912261963 -14.800000190734863 L 16.384000778198242 -14.800000190734863 L 32.768001556396484 -14.800000190734863 L 49.152000427246094 -14.800000190734863 L 54.49399948120117 -14.800000190734863 L 54.49399948120117 -12.800000190734863 L 49.152000427246094 -12.800000190734863 L 32.768001556396484 -12.800000190734863 L 16.384000778198242 -12.800000190734863 L 3.941999912261963 -12.800000190734863 L 1.4470000267028809 -12.800000190734863 L 0 -12.800000190734863 L -0.5049999952316284 -12.800000190734863 L -3 -12.800000190734863 L -3.003999948501587 -12.800000190734863 L -4.697000026702881 -12.800000190734863 L -6.002999782562256 -12.800000190734863 M -6.00600004196167 -14.79800033569336 L -6.00600004196167 -12.800000190734863 L -7.500999927520752 -12.800000190734863 L -7.500999927520752 -14.79800033569336 L -6.00600004196167 -14.79800033569336 M 57.99700164794922 -12.800000190734863 L 57.99700164794922 -14.800000190734863 L 59.19200134277344 -14.800000190734863 L 59.19200134277344 -14.79800033569336 L 60.48899841308594 -14.79800033569336 L 60.492000579833984 -14.79800033569336 L 61.6870002746582 -14.79800033569336 L 63.492000579833984 -14.79800033569336 L 63.492000579833984 -12.800000190734863 L 61.6870002746582 -12.800000190734863 L 60.492000579833984 -12.800000190734863 L 60.48899841308594 -12.800000190734863 L 59.19200134277344 -12.800000190734863 L 57.99700164794922 -12.800000190734863 M -4.697000026702881 -79.79000091552734 L -4.697000026702881 -79.79299926757812 L -6.002999782562256 -79.79299926757812 L -6.002999782562256 -81.79000091552734 L -4.697000026702881 -81.79000091552734 L -4.0960001945495605 -81.79000091552734 L -3 -81.79000091552734 L -0.5049999952316284 -81.79000091552734 L 0 -81.79000091552734 L 1.4470000267028809 -81.79000091552734 L 3.941999912261963 -81.79000091552734 L 16.384000778198242 -81.79000091552734 L 32.768001556396484 -81.79000091552734 L 49.152000427246094 -81.79000091552734 L 54.49399948120117 -81.79000091552734 L 54.49399948120117 -79.79000091552734 L 49.152000427246094 -79.79000091552734 L 32.768001556396484 -79.79000091552734 L 16.384000778198242 -79.79000091552734 L 3.941999912261963 -79.79000091552734 L 1.4470000267028809 -79.79000091552734 L 0 -79.79000091552734 L -0.5049999952316284 -79.79000091552734 L -3 -79.79000091552734 L -4.0960001945495605 -79.79000091552734 L -4.697000026702881 -79.79000091552734 M 70.98899841308594 -24.003000259399414 L 70.98899841308594 -24.576000213623047 L 70.98899841308594 -32.768001556396484 L 70.98899841308594 -33.7400016784668 L 70.98899841308594 -34.29499816894531 L 72.98999786376953 -34.29499816894531 L 72.98999786376953 -33.7400016784668 L 72.98999786376953 -32.768001556396484 L 72.98999786376953 -24.576000213623047 L 72.98999786376953 -20.479999542236328 L 72.98999786376953 -16.384000778198242 L 72.98999786376953 -15.800000190734863 L 72.98743438720703 -15.77094554901123 L 72.8165283203125 -14.802162170410156 L 72.81594848632812 -14.800000190734863 L 72.8127670288086 -14.788080215454102 L 72.80899810791016 -14.77400016784668 L 72.7883071899414 -14.735631942749023 L 72.57963562011719 -14.288065910339355 L 71.9469985961914 -13.534567832946777 L 71.91799926757812 -13.501999855041504 L 71.25299835205078 -13.092000007629395 L 70.99199676513672 -13.005585670471191 L 70.51000213623047 -12.845999717712402 L 69.98999786376953 -12.800000190734863 L 66.58999633789062 -12.800000190734863 L 66.49500274658203 -12.800000190734863 L 65.53600311279297 -12.800000190734863 L 63.49300003051758 -12.800000190734863 L 63.49300003051758 -14.79800033569336 L 65.53600311279297 -14.79800033569336 L 66.49500274658203 -14.79800033569336 L 66.58999633789062 -14.79800033569336 L 66.85099792480469 -14.79800033569336 L 67.00352478027344 -14.79800033569336 L 67.00250244140625 -14.800000190734863 L 66.925537109375 -14.951048851013184 L 66.90953826904297 -14.982439041137695 L 66.88939666748047 -15.02196979522705 L 66.88688659667969 -15.026898384094238 L 66.73600006103516 -15.322999954223633 L 66.58999633789062 -16.25 L 66.6111068725586 -16.384000778198242 L 66.73600006103516 -17.177000045776367 L 67.16200256347656 -18.013999938964844 L 67.82599639892578 -18.677000045776367 L 68.28700256347656 -18.911911010742188 L 68.66200256347656 -19.10300064086914 L 69.58999633789062 -19.25 L 69.63200378417969 -19.24333953857422 L 70.51699829101562 -19.10300064086914 L 70.89199829101562 -18.911911010742188 L 70.98899841308594 -18.862483978271484 L 70.99199676513672 -18.86095428466797 L 70.99199676513672 -19.02767562866211 L 70.99199676513672 -19.25 L 70.99199676513672 -20.479999542236328 L 70.99199676513672 -24.003000259399414 L 70.98899841308594 -24.003000259399414 M 71.0423812866211 -81.59667205810547 L 71.27069091796875 -81.48999786376953 L 71.48899841308594 -81.38800048828125 L 71.80442810058594 -81.13884735107422 L 72.10299682617188 -80.90299987792969 L 72.58799743652344 -80.29000091552734 L 72.58941650390625 -80.28695678710938 L 72.58999633789062 -80.28571319580078 L 72.60032653808594 -80.26356506347656 L 72.87226104736328 -79.57805633544922 L 72.88235473632812 -79.52083587646484 L 72.98999786376953 -78.79000091552734 L 72.98999786376953 -77.8239974975586 L 72.98999786376953 -75.48999786376953 L 72.98999786376953 -73.72799682617188 L 72.98999786376953 -65.53600311279297 L 72.98999786376953 -65.47799682617188 L 70.98899841308594 -65.47799682617188 L 70.98899841308594 -65.53600311279297 L 70.98899841308594 -70.58799743652344 L 70.99199676513672 -70.58799743652344 L 70.99199676513672 -73.72799682617188 L 70.99199676513672 -75.48999786376953 L 70.99199676513672 -75.7020034790039 L 70.99199676513672 -75.87904357910156 L 70.98899841308594 -75.87751770019531 L 70.51699829101562 -75.63700103759766 L 69.58999633789062 -75.48999786376953 L 68.66200256347656 -75.63700103759766 L 68.28700256347656 -75.82808685302734 L 67.82599639892578 -76.06300354003906 L 67.16200256347656 -76.72699737548828 L 66.73600006103516 -77.56300354003906 L 66.69489288330078 -77.8239974975586 L 66.58999633789062 -78.48999786376953 L 66.73600006103516 -79.41699981689453 L 66.92584228515625 -79.79000091552734 L 66.9273681640625 -79.79299926757812 L 66.79521942138672 -79.79299926757812 L 66.58999633789062 -79.79299926757812 L 66.49500274658203 -79.79299926757812 L 65.53600311279297 -79.79299926757812 L 63.49300003051758 -79.79299926757812 L 63.49300003051758 -81.79000091552734 L 65.53600311279297 -81.79000091552734 L 66.49500274658203 -81.79000091552734 L 66.58999633789062 -81.79000091552734 L 69.63200378417969 -81.79000091552734 L 69.98999786376953 -81.79000091552734 L 70.48127746582031 -81.74748229980469 L 70.51000213623047 -81.74500274658203 L 70.5645980834961 -81.72509002685547 L 71.0423812866211 -81.59667205810547 M 57.99399948120117 -14.800000190734863 L 57.99399948120117 -12.800000190734863 L 56.9900016784668 -12.800000190734863 L 54.494998931884766 -12.800000190734863 L 54.494998931884766 -14.800000190734863 L 56.9900016784668 -14.800000190734863 L 57.99399948120117 -14.800000190734863 M 70.98899841308594 -34.29800033569336 L 70.98899841308594 -49.152000427246094 L 70.98899841308594 -52.73500061035156 L 72.98999786376953 -52.73500061035156 L 72.98999786376953 -49.152000427246094 L 72.98999786376953 -34.29800033569336 L 70.98899841308594 -34.29800033569336 M 63.492000579833984 -81.79000091552734 L 63.492000579833984 -79.79299926757812 L 61.6870002746582 -79.79299926757812 L 61.439998626708984 -79.79299926757812 L 60.492000579833984 -79.79299926757812 L 60.48899841308594 -79.79299926757812 L 59.19200134277344 -79.79299926757812 L 59.19200134277344 -79.79000091552734 L 57.99700164794922 -79.79000091552734 L 57.99700164794922 -81.79000091552734 L 59.19200134277344 -81.79000091552734 L 60.48899841308594 -81.79000091552734 L 60.492000579833984 -81.79000091552734 L 61.439998626708984 -81.79000091552734 L 61.6870002746582 -81.79000091552734 L 63.492000579833984 -81.79000091552734 M -6.00600004196167 -79.79299926757812 L -7.500999927520752 -79.79299926757812 L -7.500999927520752 -81.79000091552734 L -6.00600004196167 -81.79000091552734 L -6.00600004196167 -79.79299926757812 M 54.494998931884766 -79.79000091552734 L 54.494998931884766 -81.79000091552734 L 56.9900016784668 -81.79000091552734 L 57.99399948120117 -81.79000091552734 L 57.99399948120117 -79.79000091552734 L 56.9900016784668 -79.79000091552734 L 54.494998931884766 -79.79000091552734 M -12.807999610900879 -17.48900032043457 L -13.170999526977539 -17.304000854492188 L -13.458999633789062 -17.016000747680664 L -13.644000053405762 -16.652999877929688 L -13.68671989440918 -16.384000778198242 L -13.708000183105469 -16.25 L -13.644000053405762 -15.847999572753906 L -13.458999633789062 -15.484999656677246 L -13.170999526977539 -15.196000099182129 L -12.807999610900879 -15.01099967956543 L -12.404999732971191 -14.947999954223633 L -12.003000259399414 -15.01099967956543 L -11.640000343322754 -15.196000099182129 L -11.35200023651123 -15.484999656677246 L -11.166999816894531 -15.847999572753906 L -11.102999687194824 -16.25 L -11.124279975891113 -16.384000778198242 L -11.166999816894531 -16.652999877929688 L -11.35200023651123 -17.016000747680664 L -11.640000343322754 -17.304000854492188 L -12.003000259399414 -17.48900032043457 L -12.288000106811523 -17.534372329711914 L -12.404999732971191 -17.55299949645996 L -12.807999610900879 -17.48900032043457 M -13.644000053405762 -78.08799743652344 L -13.509454727172852 -77.8239974975586 L -13.458999633789062 -77.7249984741211 L -13.170999526977539 -77.43599700927734 L -12.807999610900879 -77.2509994506836 L -12.404999732971191 -77.18800354003906 L -12.288000106811523 -77.20633697509766 L -12.003000259399414 -77.2509994506836 L -11.640000343322754 -77.43599700927734 L -11.35200023651123 -77.7249984741211 L -11.301545143127441 -77.8239974975586 L -11.166999816894531 -78.08799743652344 L -11.102999687194824 -78.48999786376953 L -11.166999816894531 -78.89299774169922 L -11.35200023651123 -79.25599670410156 L -11.640000343322754 -79.54399871826172 L -12.003000259399414 -79.72899627685547 L -12.288000106811523 -79.77437591552734 L -12.404999732971191 -79.79299926757812 L -12.807999610900879 -79.72899627685547 L -13.170999526977539 -79.54399871826172 L -13.458999633789062 -79.25599670410156 L -13.644000053405762 -78.89299774169922 L -13.708000183105469 -78.48999786376953 L -13.644000053405762 -78.08799743652344 M 69.18699645996094 -17.48900032043457 L 68.8239974975586 -17.304000854492188 L 68.53600311279297 -17.016000747680664 L 68.35099792480469 -16.652999877929688 L 68.30828094482422 -16.384000778198242 L 68.28700256347656 -16.25 L 68.35099792480469 -15.847999572753906 L 68.53600311279297 -15.484999656677246 L 68.8239974975586 -15.196000099182129 L 69.18699645996094 -15.01099967956543 L 69.58999633789062 -14.947999954223633 L 69.99199676513672 -15.01099967956543 L 70.3550033569336 -15.196000099182129 L 70.64299774169922 -15.484999656677246 L 70.8280029296875 -15.847999572753906 L 70.89199829101562 -16.25 L 70.87071990966797 -16.384000778198242 L 70.8280029296875 -16.652999877929688 L 70.64299774169922 -17.016000747680664 L 70.3550033569336 -17.304000854492188 L 69.99199676513672 -17.48900032043457 L 69.63200378417969 -17.546314239501953 L 69.58999633789062 -17.55299949645996 L 69.18699645996094 -17.48900032043457 M 69.18699645996094 -79.72899627685547 L 68.8239974975586 -79.54399871826172 L 68.53600311279297 -79.25599670410156 L 68.35099792480469 -78.89299774169922 L 68.28700256347656 -78.48999786376953 L 68.35099792480469 -78.08799743652344 L 68.48554229736328 -77.8239974975586 L 68.53600311279297 -77.7249984741211 L 68.8239974975586 -77.43599700927734 L 69.18699645996094 -77.2509994506836 L 69.58999633789062 -77.18800354003906 L 69.99199676513672 -77.2509994506836 L 70.3550033569336 -77.43599700927734 L 70.64299774169922 -77.7249984741211 L 70.69345092773438 -77.8239974975586 L 70.8280029296875 -78.08799743652344 L 70.89199829101562 -78.48999786376953 L 70.8280029296875 -78.89299774169922 L 70.64299774169922 -79.25599670410156 L 70.3550033569336 -79.54399871826172 L 69.99199676513672 -79.72899627685547 L 69.58999633789062 -79.79299926757812 L 69.18699645996094 -79.72899627685547 z" fill="none" stroke="rgb(0,0,255)" stroke-width="0.01mm" />
</svg>