<?xml version="1.0" standalone="no"?>
<!DOCTYPE svg PUBLIC "-//W3C//DTD SVG 1.1//EN"
  "http://www.w3.org/Graphics/SVG/1.1/DTD/svg11.dtd">
<svg width="90.17875671386719mm" height="70.17876315116882mm" viewBox="22.899620056152344 -65.5943832397461 90.17875671386719 70.17876315116882" xmlns="http://www.w3.org/2000/svg" version="1.1">
	<title>svgOutput</title>
	<desc>made with tinkercad</desc>
<path d="M 102.98699951171875 -64.5943832397461 L 103.6969985961914 -64.5943832397461 L 104.447998046875 -64.5943832397461 L 105.98899841308594 -64.5943832397461 L 106.08399963378906 -64.5943832397461 L 106.49600219726562 -64.5943832397461 L 107.5199966430664 -64.5943832397461 L 108.54399871826172 -64.5943832397461 L 109.48400115966797 -64.5943832397461 L 109.56800079345703 -64.58702850341797 L 109.63156127929688 -64.58145904541016 L 109.93450164794922 -64.55506134033203 L 109.93518829345703 -64.55487823486328 L 110.07763671875 -64.51663970947266 L 110.0948486328125 -64.51200103759766 L 110.371337890625 -64.43743896484375 L 110.59200286865234 -64.33502960205078 L 110.647216796875 -64.30940246582031 L 110.6969985961914 -64.28620910644531 L 110.7815170288086 -64.24684143066406 L 110.90290069580078 -64.1618423461914 L 111.13314056396484 -64 L 111.15171813964844 -63.9869384765625 L 111.36688232421875 -63.77244186401367 L 111.47160339355469 -63.667720794677734 L 111.59712219238281 -63.487998962402344 L 111.61599731445312 -63.46096420288086 L 111.64584350585938 -63.41823959350586 L 111.73084259033203 -63.29685974121094 L 111.7313003540039 -63.29587936401367 L 111.85954284667969 -63.02164077758789 L 111.88079833984375 -62.97600173950195 L 111.9220962524414 -62.8873405456543 L 112.00064086914062 -62.5936393737793 L 112.03543853759766 -62.4640007019043 L 112.0390625 -62.45050048828125 L 112.03913116455078 -62.449710845947266 L 112.06546020507812 -62.147560119628906 L 112.07837677001953 -62 L 112.07837677001953 -61.99930191040039 L 112.07837677001953 -61.95199966430664 L 112.07837677001953 -61.439998626708984 L 112.07837677001953 -60.41600036621094 L 112.07837677001953 -59.391998291015625 L 112.07837677001953 -58.70000076293945 L 112.07837677001953 -58.36800003051758 L 112.07837677001953 -57.34400177001953 L 112.07837677001953 -56.61756896972656 L 112.07837677001953 -53.24800109863281 L 112.07837677001953 -49.152000427246094 L 112.07837677001953 -32.768001556396484 L 112.07837677001953 -16.384000778198242 L 112.07837677001953 -8.192000389099121 L 112.07837677001953 -8.008000373840332 L 112.07837677001953 -4.0960001945495605 L 112.07837677001953 -2.0480000972747803 L 112.07837677001953 -1.0240000486373901 L 112.07837677001953 4.440892164675075e-17 L 112.07837677001953 0.9900000095367432 L 112.0754165649414 1.0240000486373901 L 112.0519790649414 1.2929400205612183 L 112.0390625 1.440500020980835 L 112.013427734375 1.5360000133514404 L 112.00064086914062 1.5836399793624878 L 111.9220962524414 1.8773399591445923 L 111.9214096069336 1.878817081451416 L 111.86962127685547 1.9900000095367432 L 111.85954284667969 2.0116400718688965 L 111.84253692626953 2.0480000972747803 L 111.73084259033203 2.2868599891662598 L 111.64584350585938 2.4082400798797607 L 111.61599731445312 2.450965404510498 L 111.53984832763672 2.559999942779541 L 111.47160339355469 2.6577200889587402 L 111.47004699707031 2.6592743396759033 L 111.36688232421875 2.7624399662017822 L 111.15171813964844 2.9769399166107178 L 111.03034210205078 3.0619399547576904 L 111.01602935791016 3.072000026702881 L 110.7815170288086 3.236840009689331 L 110.77871704101562 3.2381439208984375 L 110.6969985961914 3.2762112617492676 L 110.647216796875 3.2994000911712646 L 110.59200286865234 3.325028419494629 L 110.371337890625 3.4274399280548096 L 110.22820281982422 3.465859889984131 L 110.08000183105469 3.505824089050293 L 109.95326232910156 3.5399999618530273 L 109.93450164794922 3.5450599193573 L 109.93246459960938 3.5452382564544678 L 109.78694152832031 3.5579800605773926 L 109.56800079345703 3.577059745788574 L 109.48600769042969 3.584205150604248 L 109.48400115966797 3.5843799114227295 L 108.54399871826172 3.5843749046325684 L 107.5199966430664 3.584369421005249 L 106.49600219726562 3.5843639373779297 L 106.08399963378906 3.5843615531921387 L 105.98899841308594 3.5843610763549805 L 105.75900268554688 3.584359884262085 L 105.47200012207031 3.5843582153320312 L 104.447998046875 3.584352731704712 L 103.6969985961914 3.584348678588867 L 103.49400329589844 3.584347724914551 L 103.26399993896484 3.584346294403076 L 102.98699951171875 3.5843448638916016 L 102.98699951171875 3.584195613861084 L 102.98699951171875 3.5841894149780273 L 102.98699951171875 2.5280001163482666 L 102.98699951171875 2 L 102.98699951171875 1.9900000095367432 L 102.98699951171875 1.8572975397109985 L 102.98699951171875 1.6814851760864258 L 102.98699951171875 1.5866012573242188 L 102.98699951171875 1.5859020948410034 L 102.98699951171875 4.440892164675075e-17 L 102.98699951171875 -1.9980000257492065 L 102.98699951171875 -2.0480000972747803 L 102.98699951171875 -4.010000228881836 L 102.98699951171875 -5.002999782562256 L 102.98699951171875 -59 L 102.98699951171875 -59.391998291015625 L 102.98699951171875 -60.41600036621094 L 102.98699951171875 -60.495941162109375 L 102.98699951171875 -61.439998626708984 L 102.98699951171875 -61.95199966430664 L 102.98699951171875 -62.29457092285156 L 102.98699951171875 -62.39382553100586 L 102.98699951171875 -62.39479446411133 L 102.98699951171875 -62.39690399169922 L 102.98699951171875 -62.45156478881836 L 102.98699951171875 -62.45170211791992 L 102.98699951171875 -62.461822509765625 L 102.98699951171875 -62.4640007019043 L 102.98699951171875 -62.46910095214844 L 102.98699951171875 -62.48234176635742 L 102.98699951171875 -62.59590148925781 L 102.98699951171875 -62.725154876708984 L 102.98699951171875 -63.062198638916016 L 102.98699951171875 -63.487998962402344 L 102.98699951171875 -63.84855270385742 L 102.98699951171875 -64.5943832397461 M 23.95435905456543 1.437760829925537 L 23.906400680541992 1.0468000173568726 L 23.904325485229492 1.0240000486373901 L 23.901229858398438 0.9900000095367432 L 23.901124954223633 4.440892164675075e-17 L 23.900894165039062 -2.1866908073425293 L 23.90059471130371 -5.002999782562256 L 23.90027618408203 -8.008000373840332 L 23.89995765686035 -8.008000373840332 L 23.89995002746582 -8.079999923706055 L 23.89995002746582 -8.192000389099121 L 23.89990234375 -16.384000778198242 L 23.89980697631836 -32.768001556396484 L 23.89971160888672 -49.152000427246094 L 23.899694442749023 -52.00299835205078 L 23.899677276611328 -52.00299835205078 L 23.899646759033203 -57.34400177001953 L 23.89962387084961 -61.439998626708984 L 23.899620056152344 -61.95199966430664 L 23.899620056152344 -62 L 23.910160064697266 -62.132938385009766 L 23.93194007873535 -62.405521392822266 L 23.94602394104004 -62.4640007019043 L 23.963220596313477 -62.535400390625 L 24.027240753173828 -62.802040100097656 L 24.0277099609375 -62.80317687988281 L 24.07823944091797 -62.92512130737305 L 24.089000701904297 -62.9510383605957 L 24.099363327026367 -62.97600173950195 L 24.18317985534668 -63.17789840698242 L 24.252880096435547 -63.29145812988281 L 24.37314224243164 -63.487998962402344 L 24.39543914794922 -63.52444076538086 L 24.482139587402344 -63.6260986328125 L 24.576000213623047 -63.7359504699707 L 24.66033935546875 -63.834659576416016 L 24.761659622192383 -63.92136001586914 L 24.853748321533203 -64 L 24.969560623168945 -64.0988998413086 L 25.083120346069336 -64.1686019897461 L 25.316099166870117 -64.31182098388672 L 25.31721305847168 -64.3122787475586 L 25.43951988220215 -64.36282348632812 L 25.4950008392334 -64.38565063476562 L 25.600000381469727 -64.42884826660156 L 25.692960739135742 -64.46710205078125 L 25.87950325012207 -64.51200103759766 L 25.958940505981445 -64.53112030029297 L 26.08847999572754 -64.56205749511719 L 26.361059188842773 -64.5838394165039 L 26.493999481201172 -64.5943832397461 L 26.624000549316406 -64.5943832397461 L 27.648000717163086 -64.5943832397461 L 28.672000885009766 -64.5943832397461 L 29.695999145507812 -64.5943832397461 L 30.155000686645508 -64.5943832397461 L 30.719999313354492 -64.5943832397461 L 32.768001556396484 -64.5943832397461 L 36.49399948120117 -64.5943832397461 L 36.86399841308594 -64.5943832397461 L 38.98899841308594 -64.5943832397461 L 40.959999084472656 -64.5943832397461 L 45.055999755859375 -64.5943832397461 L 49.152000427246094 -64.5943832397461 L 53.24800109863281 -64.5943832397461 L 56.492000579833984 -64.5943832397461 L 56.492000579833984 -63 L 56.492000579833984 -61.439998626708984 L 56.492000579833984 -59 L 56.49800109863281 -59 L 56.49800109863281 -61.439998626708984 L 56.49800109863281 -63 L 56.49800109863281 -64.5943832397461 L 57.34400177001953 -64.5943832397461 L 61.439998626708984 -64.5943832397461 L 65.53600311279297 -64.5943832397461 L 69.63200378417969 -64.5943832397461 L 73.72799682617188 -64.5943832397461 L 77.8239974975586 -64.5943832397461 L 81.91999816894531 -64.5943832397461 L 86.01599884033203 -64.5943832397461 L 90.11199951171875 -64.5943832397461 L 94.20800018310547 -64.5943832397461 L 98.30400085449219 -64.5943832397461 L 100.35199737548828 -64.5943832397461 L 101.2020034790039 -64.5943832397461 L 102.4000015258789 -64.5943832397461 L 102.6392593383789 -64.5943832397461 L 102.98600006103516 -64.5943832397461 L 102.98600006103516 -63.8506965637207 L 102.98600006103516 -63.487998962402344 L 102.98600006103516 -63.06362533569336 L 102.98600006103516 -62.726158142089844 L 102.98600006103516 -62.59659957885742 L 102.98600006103516 -62.48133850097656 L 102.98600006103516 -62.46840286254883 L 102.98600006103516 -62.4640007019043 L 102.98600006103516 -62.460819244384766 L 102.98600006103516 -62.45100021362305 L 102.98600006103516 -62.450862884521484 L 102.98600006103516 -62.39590072631836 L 102.98600006103516 -62.393798828125 L 102.98600006103516 -62.393123626708984 L 102.98600006103516 -62.29357147216797 L 102.98600006103516 -61.95199966430664 L 102.98600006103516 -61.439998626708984 L 102.98600006103516 -60.49547576904297 L 102.98600006103516 -60.41600036621094 L 102.98600006103516 -59.391998291015625 L 102.98600006103516 -59 L 102.98600006103516 -53.25699996948242 L 102.98600006103516 -7.751999855041504 L 102.98600006103516 -5.002999782562256 L 102.98600006103516 -4.010000228881836 L 102.98600006103516 -2.0480000972747803 L 102.98600006103516 -1.9980000257492065 L 102.98600006103516 4.440892164675075e-17 L 102.98600006103516 1.5866013765335083 L 102.98600006103516 1.5870674848556519 L 102.98600006103516 1.6817524433135986 L 102.98600006103516 1.8573857545852661 L 102.98600006103516 1.9900000095367432 L 102.98600006103516 2 L 102.98600006103516 2.5280001163482666 L 102.98600006103516 3.5841894149780273 L 102.98600006103516 3.584195613861084 L 102.98600006103516 3.5843448638916016 L 102.98600006103516 3.5843584537506104 L 102.4000015258789 3.584355115890503 L 101.2020034790039 3.584348678588867 L 100.35199737548828 3.5843441486358643 L 98.30400085449219 3.5843329429626465 L 83.48899841308594 3.5842530727386475 L 80.99400329589844 3.5842394828796387 L 80.99199676513672 3.5842394828796387 L 80.99199676513672 3.5841422080993652 L 72.98699951171875 3.584122657775879 L 65.53600311279297 3.584104537963867 L 56.49800109863281 3.58408260345459 L 56.49800109863281 2 L 56.49800109863281 1.9900000095367432 L 56.49800109863281 4.440892164675075e-17 L 56.49800109863281 -1.9980000257492065 L 56.49800109863281 -4.010000228881836 L 56.492000579833984 -4.010000228881836 L 56.492000579833984 -1.9980000257492065 L 56.492000579833984 4.440892164675075e-17 L 56.492000579833984 1.9900000095367432 L 56.492000579833984 2 L 56.492000579833984 3.58408260345459 L 56.492000579833984 3.5841422080993652 L 49.152000427246094 3.5841023921966553 L 40.959999084472656 3.5840582847595215 L 39.444000244140625 3.584049940109253 L 38.98899841308594 3.584005117416382 L 36.86399841308594 3.5837948322296143 L 36.49399948120117 3.5837583541870117 L 32.768001556396484 3.5833897590637207 L 32.62865447998047 3.583375930786133 L 30.719999313354492 3.5831871032714844 L 30.155000686645508 3.5831313133239746 L 29.695999145507812 3.5830860137939453 L 28.672000885009766 3.582984685897827 L 27.648000717163086 3.582883358001709 L 26.624000549316406 3.582782030105591 L 26.493999481201172 3.5827691555023193 L 26.43720054626465 3.577733278274536 L 26.1271915435791 3.5399999618530273 L 26.11199951171875 3.5381510257720947 L 26.046239852905273 3.530146837234497 L 25.645618438720703 3.4426469802856445 L 25.605945587158203 3.4304707050323486 L 25.600000381469727 3.427823305130005 L 25.58155632019043 3.4196112155914307 L 25.4950008392334 3.371546745300293 L 25.210311889648438 3.213459014892578 L 25.013288497924805 3.0897772312164307 L 24.987892150878906 3.072000026702881 L 24.83638572692871 2.9659457206726074 L 24.576000213623047 2.728203058242798 L 24.533353805541992 2.6892647743225098 L 24.504722595214844 2.6591110229492188 L 24.373476028442383 2.420631170272827 L 24.260690689086914 2.2798097133636475 L 24.13949203491211 2.0480000972747803 L 24.089000701904297 1.9514286518096924 L 24.070676803588867 1.9163823127746582 L 24.05411148071289 1.8782222270965576 L 24.012733459472656 1.6088155508041382 L 23.95435905456543 1.437760829925537 M 31.790000915527344 -34.316001892089844 L 31.740999221801758 -34.00699996948242 L 31.77509307861328 -33.79199981689453 L 31.790000915527344 -33.698001861572266 L 31.93199920654297 -33.41899871826172 L 32.15399932861328 -33.196998596191406 L 32.43299865722656 -33.05500030517578 L 32.742000579833984 -33.00600051879883 L 32.768001556396484 -33.01012420654297 L 33.05099868774414 -33.05500030517578 L 33.33000183105469 -33.196998596191406 L 33.551998138427734 -33.41899871826172 L 33.694000244140625 -33.698001861572266 L 33.70890426635742 -33.79199981689453 L 33.74300003051758 -34.00699996948242 L 33.694000244140625 -34.316001892089844 L 33.551998138427734 -34.595001220703125 L 33.33000183105469 -34.816001892089844 L 33.05099868774414 -34.95800018310547 L 32.768001556396484 -35.00287628173828 L 32.742000579833984 -35.00699996948242 L 32.43299865722656 -34.95800018310547 L 32.15399932861328 -34.816001892089844 L 31.93199920654297 -34.595001220703125 L 31.790000915527344 -34.316001892089844 M 36.428001403808594 -28.166000366210938 L 36.49399948120117 -28.29567527770996 L 36.56999969482422 -28.44499969482422 L 36.60673141479492 -28.672000885009766 L 36.619998931884766 -28.753999710083008 L 36.56999969482422 -29.062999725341797 L 36.49399948120117 -29.212324142456055 L 36.428001403808594 -29.341999053955078 L 36.207000732421875 -29.562999725341797 L 35.928001403808594 -29.70599937438965 L 35.61899948120117 -29.7549991607666 L 35.310001373291016 -29.70599937438965 L 35.029998779296875 -29.562999725341797 L 34.808998107910156 -29.341999053955078 L 34.66699981689453 -29.062999725341797 L 34.61800003051758 -28.753999710083008 L 34.631004333496094 -28.672000885009766 L 34.66699981689453 -28.44499969482422 L 34.808998107910156 -28.166000366210938 L 35.029998779296875 -27.94499969482422 L 35.310001373291016 -27.802000045776367 L 35.61899948120117 -27.753000259399414 L 35.928001403808594 -27.802000045776367 L 36.207000732421875 -27.94499969482422 L 36.428001403808594 -28.166000366210938 M 33.694000244140625 -26.694000244140625 L 33.74300003051758 -27.003000259399414 L 33.694000244140625 -27.312000274658203 L 33.551998138427734 -27.590999603271484 L 33.33000183105469 -27.812000274658203 L 33.05099868774414 -27.954999923706055 L 32.768001556396484 -27.9998779296875 L 32.742000579833984 -28.003999710083008 L 32.43299865722656 -27.954999923706055 L 32.15399932861328 -27.812000274658203 L 31.93199920654297 -27.590999603271484 L 31.790000915527344 -27.312000274658203 L 31.740999221801758 -27.003000259399414 L 31.790000915527344 -26.694000244140625 L 31.825626373291016 -26.624000549316406 L 31.93199920654297 -26.415000915527344 L 32.15399932861328 -26.194000244140625 L 32.43299865722656 -26.052000045776367 L 32.742000579833984 -26.00200080871582 L 32.768001556396484 -26.006206512451172 L 33.05099868774414 -26.052000045776367 L 33.33000183105469 -26.194000244140625 L 33.551998138427734 -26.415000915527344 L 33.65837097167969 -26.624000549316406 L 33.694000244140625 -26.694000244140625 M 30.674999237060547 -31.667999267578125 L 30.816999435424805 -31.94700050354004 L 30.865999221801758 -32.25600051879883 L 30.816999435424805 -32.564998626708984 L 30.713680267333984 -32.768001556396484 L 30.674999237060547 -32.84400177001953 L 30.45400047302246 -33.064998626708984 L 30.173999786376953 -33.207000732421875 L 30.155000686645508 -33.21007537841797 L 29.864999771118164 -33.25699996948242 L 29.555999755859375 -33.207000732421875 L 29.277000427246094 -33.064998626708984 L 29.055999755859375 -32.84400177001953 L 29.017318725585938 -32.768001556396484 L 28.913999557495117 -32.564998626708984 L 28.86400032043457 -32.25600051879883 L 28.913999557495117 -31.94700050354004 L 29.055999755859375 -31.667999267578125 L 29.277000427246094 -31.44700050354004 L 29.555999755859375 -31.304000854492188 L 29.864999771118164 -31.2549991607666 L 30.155000686645508 -31.300987243652344 L 30.173999786376953 -31.304000854492188 L 30.45400047302246 -31.44700050354004 L 30.674999237060547 -31.667999267578125 M 36.49399948120117 -31.79767608642578 L 36.56999969482422 -31.94700050354004 L 36.619998931884766 -32.25600051879883 L 36.56999969482422 -32.564998626708984 L 36.49399948120117 -32.714324951171875 L 36.46668243408203 -32.768001556396484 L 36.428001403808594 -32.84400177001953 L 36.207000732421875 -33.064998626708984 L 35.928001403808594 -33.207000732421875 L 35.61899948120117 -33.25699996948242 L 35.310001373291016 -33.207000732421875 L 35.029998779296875 -33.064998626708984 L 34.808998107910156 -32.84400177001953 L 34.770320892333984 -32.768001556396484 L 34.66699981689453 -32.564998626708984 L 34.61800003051758 -32.25600051879883 L 34.66699981689453 -31.94700050354004 L 34.808998107910156 -31.667999267578125 L 35.029998779296875 -31.44700050354004 L 35.310001373291016 -31.304000854492188 L 35.61899948120117 -31.2549991607666 L 35.928001403808594 -31.304000854492188 L 36.207000732421875 -31.44700050354004 L 36.428001403808594 -31.667999267578125 L 36.49399948120117 -31.79767608642578 M 29.555999755859375 -27.802000045776367 L 29.864999771118164 -27.753000259399414 L 30.155000686645508 -27.798986434936523 L 30.173999786376953 -27.802000045776367 L 30.45400047302246 -27.94499969482422 L 30.674999237060547 -28.166000366210938 L 30.816999435424805 -28.44499969482422 L 30.852996826171875 -28.672000885009766 L 30.865999221801758 -28.753999710083008 L 30.816999435424805 -29.062999725341797 L 30.674999237060547 -29.341999053955078 L 30.45400047302246 -29.562999725341797 L 30.173999786376953 -29.70599937438965 L 30.155000686645508 -29.709012985229492 L 29.864999771118164 -29.7549991607666 L 29.555999755859375 -29.70599937438965 L 29.277000427246094 -29.562999725341797 L 29.055999755859375 -29.341999053955078 L 28.913999557495117 -29.062999725341797 L 28.86400032043457 -28.753999710083008 L 28.877267837524414 -28.672000885009766 L 28.913999557495117 -28.44499969482422 L 29.055999755859375 -28.166000366210938 L 29.277000427246094 -27.94499969482422 L 29.555999755859375 -27.802000045776367 M 31.790000915527344 -30.195999145507812 L 31.93199920654297 -29.91699981689453 L 32.15399932861328 -29.695999145507812 L 32.43299865722656 -29.55299949645996 L 32.742000579833984 -29.503999710083008 L 32.768001556396484 -29.50812339782715 L 33.05099868774414 -29.55299949645996 L 33.33000183105469 -29.695999145507812 L 33.551998138427734 -29.91699981689453 L 33.694000244140625 -30.195999145507812 L 33.74300003051758 -30.5049991607666 L 33.70890426635742 -30.719999313354492 L 33.694000244140625 -30.81399917602539 L 33.551998138427734 -31.093000411987305 L 33.33000183105469 -31.31399917602539 L 33.05099868774414 -31.457000732421875 L 32.768001556396484 -31.501876831054688 L 32.742000579833984 -31.506000518798828 L 32.43299865722656 -31.457000732421875 L 32.15399932861328 -31.31399917602539 L 31.93199920654297 -31.093000411987305 L 31.790000915527344 -30.81399917602539 L 31.77509307861328 -30.719999313354492 L 31.740999221801758 -30.5049991607666 L 31.790000915527344 -30.195999145507812 M 101.48600006103516 -7.751999855041504 L 101.48600006103516 -53.25699996948242 L 41.98099899291992 -53.25699996948242 L 41.98099899291992 -7.751999855041504 L 101.48600006103516 -7.751999855041504 z" fill="none" stroke="rgb(0,0,255)" stroke-width="0.01mm" />
</svg>